# xmcd
#
# Track frame offsets:
#	150
#	18087
#	34088
#	50300
#	65042
#	80820
#	97526
#	114070
#	128472
#	145472
#	163409
#	179410
#	195622
#	210364
#	226142
#	242848
#	259392
#	273794
#
# Disc length: 3877 seconds
#
# Revision: 1
# Processed by: cddbd v1.5.2PL0 Copyright (c) Steve Scherf et al.
# Submitted via: audiograbber 1.83.01
#
DISCID=ee0f2312
DTITLE=Pop Hits - 20803-9
DYEAR=2009
DGENRE=Country
TTITLE0=Brad Paisley - Waitin' On A Woman
TTITLE1=Carolina Rain - American Radio
TTITLE2=Carter's Chord - Different Breed
TTITLE3=Lady Antebellum - Lookin' For A Good Time
TTITLE4=Randy Houser - Anything Goes
TTITLE5=Zac Brown Band - Chicken Fried
TTITLE6=Pat Green - Let Me
TTITLE7=Trailer Choir - Off The Hillbilly Hook
TTITLE8=Lee Brice - Upper Middle Class White Trash
TTITLE9=Brad Paisley - Waitin On A Woman Vocal
TTITLE10=Carolina Rain - American Radio Vocal
TTITLE11=Carter's Chord - Different Breed Vocal
TTITLE12=Lady Antebellum - Lookin' For A Good Time Vocal
TTITLE13=Randy Houser - Anything Goes Vocal
TTITLE14=Zac Brown Band - Chicken Fried Vocal
TTITLE15=Pat Green - Let Me Vocal
TTITLE16=Trailer Choir - Off The Hillbilly Hook Vocal
TTITLE17=Lee Brice - Upper Middle Class White Trash Vocal
EXTD=
EXTT0=
EXTT1=
EXTT2=
EXTT3=
EXTT4=
EXTT5=
EXTT6=
EXTT7=
EXTT8=
EXTT9=
EXTT10=
EXTT11=
EXTT12=
EXTT13=
EXTT14=
EXTT15=
EXTT16=
EXTT17=
PLAYORDER=
